# xmcd
#
# Track frame offsets:
#	183
#	12553
#	21063
#	33315
#	44158
#	55195
#	66370
#	74900
#	85898
#	97240
#	106610
#	115505
# Disc length: 1700 seconds
# Revision: 1
# Processed by: cddbd v1.5.1PL2 Copyright (c) Steve Scherf et al.
#
# Submitted via: libkcddb 0.20
#
DISCID=a706a20c
DTITLE=Jerry Lee Lewis - Rockin all night long
DYEAR=1991
DGENRE=Rock and Roll
TTITLE0=Whole lotta shakin' goin' on
TTITLE1=Great balls of fire
TTITLE2=Johnny B Goode
TTITLE3=Little Queenie
TTITLE4=What'd I say
TTITLE5=Be bop a lula
TTITLE6=Wild one (real wild child)
TTITLE7=Break up
TTITLE8=Sweet little sixteen
TTITLE9=High school confidential
TTITLE10=Jailhouse rock
TTITLE11=Good rockin' tonight
EXTD=
EXTT0=
EXTT1=
EXTT2=
EXTT3=
EXTT4=
EXTT5=
EXTT6=
EXTT7=
EXTT8=
EXTT9=
EXTT10=
EXTT11=
PLAYORDER=
